# xmcd CD database file
#
# Track frame offsets:
#	150
#	11180
#	26331
#	38345
#	55709
#	69929
#	83936
#	97830
#	114034
#	131436
#	146555
#	161745
#	173130
#	180289
#	190309
#	199488
#	208581
#	215395
#	225011
#	238067
#	251474
#	263719
#	278507
#	285484
#	294784
#	303247
#
# Disc length: 4201 seconds
#
# Revision: 0
# Processed by: cddbd v1.5.1PL2 Copyright (c) Steve Scherf et al.
# Submitted via: Feurio! 1.68 - http://www.feurio.com
#
DISCID=5010671a
DTITLE=Bill Ramsey and Paul Kuhn - Ballads And Blues - Songs From Home
DYEAR=1900
DGENRE=Blues
TTITLE0=But Not For Me
TTITLE1=Yesterday
TTITLE2=Fly Me To The Moon
TTITLE3=Gone With The Wind
TTITLE4=What's New
TTITLE5=There'll Never Be Another You
TTITLE6=Kansas City
TTITLE7=Tobacco Road
TTITLE8=Willow Weep For Me
TTITLE9=It's The Same Old Story
TTITLE10=Round Midnight
TTITLE11=It Won't Be Long
TTITLE12=Crawdad Hole
TTITLE13=Riddle Song
TTITLE14=Sweet Betsy From Pike
TTITLE15=Wabash Cannonball
TTITLE16=The Frog And The Mouse
TTITLE17=That Lonesome Valley
TTITLE18=St. James Infirmary Blues
TTITLE19=John Henry
TTITLE20=Deep River
TTITLE21=The Midnight Train
TTITLE22=Old Dan Tucker
TTITLE23=The Carrion Crow
TTITLE24=Black, Black, Black
TTITLE25=There's A Hole In The Bottom Of The Sea
EXTD=
EXTT0=
EXTT1=
EXTT2=
EXTT3=
EXTT4=
EXTT5=
EXTT6=
EXTT7=
EXTT8=
EXTT9=
EXTT10=
EXTT11=
EXTT12=
EXTT13=
EXTT14=
EXTT15=
EXTT16=
EXTT17=
EXTT18=
EXTT19=
EXTT20=
EXTT21=
EXTT22=
EXTT23=
EXTT24=
EXTT25=
PLAYORDER=
